<svg xmlns="http://www.w3.org/2000/svg" enable-background="new 0 0 24 24" height="24px" viewBox="0 0 24 24" width="24px" fill="none">
  <defs>
    <linearGradient id="gradstar" x1="0%" y1="0%" x2="0%" y2="100%">
      <stop offset="0%" style="stop-color:#FF8B04;stop-opacity:1" />
      <stop offset="49%" style="stop-color:#EFF40D;stop-opacity:1" />
      <stop offset="100%" style="stop-color:#FF8B04;stop-opacity:1" />
    </linearGradient>
  </defs>
  <g>
    <path d="M0 0h24v24H0V0z" fill="none"/>
    <path d="M0 0h24v24H0V0z" fill="none"/>
  </g>
  <g>
    <path d="m12 17.27 4.15 2.51c.76.46 1.69-.22 1.49-1.08l-1.1-4.72 3.67-3.18c.67-.58.31-1.68-.57-1.75l-4.83-.41-1.89-4.46c-.34-.81-1.5-.81-1.84 0L9.19 8.63l-4.83.41c-.88.07-1.24 1.17-.57 1.75l3.67 3.18-1.1 4.72c-.2.86.73 1.54 1.49 1.08l4.15-2.5z" fill="url(#gradstar)"/>
  </g>
</svg>
